<mxfile host="app.diagrams.net" modified="2023-12-05T04:33:37.122Z" agent="Mozilla/5.0 (Windows NT 10.0; Win64; x64) AppleWebKit/537.36 (KHTML, like Gecko) Chrome/119.0.0.0 Safari/537.36" etag="1oTgZtT83di0Fzqe2ulx" version="22.1.5" type="google" pages="2">
  <diagram id="C5RBs43oDa-KdzZeNtuy" name="Page-1">
    <mxGraphModel grid="1" page="1" gridSize="10" guides="1" tooltips="1" connect="1" arrows="1" fold="1" pageScale="1" pageWidth="827" pageHeight="1169" math="0" shadow="0">
      <root>
        <mxCell id="WIyWlLk6GJQsqaUBKTNV-0" />
        <mxCell id="WIyWlLk6GJQsqaUBKTNV-1" parent="WIyWlLk6GJQsqaUBKTNV-0" />
        <mxCell id="C_DNRk5z5ZeW1kJs9_Bq-0" value="userAccount" style="swimlane;fontStyle=0;childLayout=stackLayout;horizontal=1;startSize=26;fillColor=none;horizontalStack=0;resizeParent=1;resizeParentMax=0;resizeLast=0;collapsible=1;marginBottom=0;whiteSpace=wrap;html=1;strokeWidth=2;" vertex="1" parent="WIyWlLk6GJQsqaUBKTNV-1">
          <mxGeometry x="220" y="230" width="140" height="182" as="geometry" />
        </mxCell>
        <mxCell id="C_DNRk5z5ZeW1kJs9_Bq-11" value="+ user_id (PK): int" style="text;strokeColor=none;fillColor=none;align=left;verticalAlign=top;spacingLeft=4;spacingRight=4;overflow=hidden;rotatable=0;points=[[0,0.5],[1,0.5]];portConstraint=eastwest;whiteSpace=wrap;html=1;strokeWidth=2;" vertex="1" parent="C_DNRk5z5ZeW1kJs9_Bq-0">
          <mxGeometry y="26" width="140" height="26" as="geometry" />
        </mxCell>
        <mxCell id="C_DNRk5z5ZeW1kJs9_Bq-1" value="+ email: string" style="text;strokeColor=none;fillColor=none;align=left;verticalAlign=top;spacingLeft=4;spacingRight=4;overflow=hidden;rotatable=0;points=[[0,0.5],[1,0.5]];portConstraint=eastwest;whiteSpace=wrap;html=1;strokeWidth=2;" vertex="1" parent="C_DNRk5z5ZeW1kJs9_Bq-0">
          <mxGeometry y="52" width="140" height="26" as="geometry" />
        </mxCell>
        <mxCell id="C_DNRk5z5ZeW1kJs9_Bq-8" value="+ user_hash (FK): string" style="text;strokeColor=none;fillColor=none;align=left;verticalAlign=top;spacingLeft=4;spacingRight=4;overflow=hidden;rotatable=0;points=[[0,0.5],[1,0.5]];portConstraint=eastwest;whiteSpace=wrap;html=1;strokeWidth=2;" vertex="1" parent="C_DNRk5z5ZeW1kJs9_Bq-0">
          <mxGeometry y="78" width="140" height="26" as="geometry" />
        </mxCell>
        <mxCell id="C_DNRk5z5ZeW1kJs9_Bq-2" value="+ hashed_otp: string" style="text;strokeColor=none;fillColor=none;align=left;verticalAlign=top;spacingLeft=4;spacingRight=4;overflow=hidden;rotatable=0;points=[[0,0.5],[1,0.5]];portConstraint=eastwest;whiteSpace=wrap;html=1;strokeWidth=2;" vertex="1" parent="C_DNRk5z5ZeW1kJs9_Bq-0">
          <mxGeometry y="104" width="140" height="26" as="geometry" />
        </mxCell>
        <mxCell id="C_DNRk5z5ZeW1kJs9_Bq-3" value="+ user_salt: string" style="text;strokeColor=none;fillColor=none;align=left;verticalAlign=top;spacingLeft=4;spacingRight=4;overflow=hidden;rotatable=0;points=[[0,0.5],[1,0.5]];portConstraint=eastwest;whiteSpace=wrap;html=1;strokeWidth=2;" vertex="1" parent="C_DNRk5z5ZeW1kJs9_Bq-0">
          <mxGeometry y="130" width="140" height="26" as="geometry" />
        </mxCell>
        <mxCell id="424QxUdOpEg33mD_mEzW-2" value="+ user_status: string&amp;nbsp;" style="text;strokeColor=none;fillColor=none;align=left;verticalAlign=top;spacingLeft=4;spacingRight=4;overflow=hidden;rotatable=0;points=[[0,0.5],[1,0.5]];portConstraint=eastwest;whiteSpace=wrap;html=1;strokeWidth=2;" vertex="1" parent="C_DNRk5z5ZeW1kJs9_Bq-0">
          <mxGeometry y="156" width="140" height="26" as="geometry" />
        </mxCell>
        <mxCell id="C_DNRk5z5ZeW1kJs9_Bq-4" value="userProfile" style="swimlane;fontStyle=0;childLayout=stackLayout;horizontal=1;startSize=26;fillColor=none;horizontalStack=0;resizeParent=1;resizeParentMax=0;resizeLast=0;collapsible=1;marginBottom=0;whiteSpace=wrap;html=1;strokeWidth=2;" vertex="1" parent="WIyWlLk6GJQsqaUBKTNV-1">
          <mxGeometry x="440" y="230" width="320" height="208" as="geometry" />
        </mxCell>
        <mxCell id="C_DNRk5z5ZeW1kJs9_Bq-6" value="+ user_hash: string" style="text;strokeColor=none;fillColor=none;align=left;verticalAlign=top;spacingLeft=4;spacingRight=4;overflow=hidden;rotatable=0;points=[[0,0.5],[1,0.5]];portConstraint=eastwest;whiteSpace=wrap;html=1;strokeWidth=2;" vertex="1" parent="C_DNRk5z5ZeW1kJs9_Bq-4">
          <mxGeometry y="26" width="320" height="26" as="geometry" />
        </mxCell>
        <mxCell id="C_DNRk5z5ZeW1kJs9_Bq-5" value="+ profile_user_role: string" style="text;strokeColor=none;fillColor=none;align=left;verticalAlign=top;spacingLeft=4;spacingRight=4;overflow=hidden;rotatable=0;points=[[0,0.5],[1,0.5]];portConstraint=eastwest;whiteSpace=wrap;html=1;strokeWidth=2;" vertex="1" parent="C_DNRk5z5ZeW1kJs9_Bq-4">
          <mxGeometry y="52" width="320" height="26" as="geometry" />
        </mxCell>
        <mxCell id="gLNbwo36YoJFuykzSE3J-1" value="+ profile_username: string" style="text;strokeColor=none;fillColor=none;align=left;verticalAlign=top;spacingLeft=4;spacingRight=4;overflow=hidden;rotatable=0;points=[[0,0.5],[1,0.5]];portConstraint=eastwest;whiteSpace=wrap;html=1;strokeWidth=2;" vertex="1" parent="C_DNRk5z5ZeW1kJs9_Bq-4">
          <mxGeometry y="78" width="320" height="26" as="geometry" />
        </mxCell>
        <mxCell id="C_DNRk5z5ZeW1kJs9_Bq-9" value="+ profile_dob: DateTime&amp;nbsp;" style="text;strokeColor=none;fillColor=none;align=left;verticalAlign=top;spacingLeft=4;spacingRight=4;overflow=hidden;rotatable=0;points=[[0,0.5],[1,0.5]];portConstraint=eastwest;whiteSpace=wrap;html=1;strokeWidth=2;" vertex="1" parent="C_DNRk5z5ZeW1kJs9_Bq-4">
          <mxGeometry y="104" width="320" height="26" as="geometry" />
        </mxCell>
        <mxCell id="y5upMaRN0Zra1o6a4POu-1" value="+ profile_bio: string" style="text;strokeColor=none;fillColor=none;align=left;verticalAlign=top;spacingLeft=4;spacingRight=4;overflow=hidden;rotatable=0;points=[[0,0.5],[1,0.5]];portConstraint=eastwest;whiteSpace=wrap;html=1;strokeWidth=2;" vertex="1" parent="C_DNRk5z5ZeW1kJs9_Bq-4">
          <mxGeometry y="130" width="320" height="26" as="geometry" />
        </mxCell>
        <mxCell id="HnR6sfjn-DypFpKfW6RM-0" value="+ profile_photo: Image" style="text;strokeColor=none;fillColor=none;align=left;verticalAlign=top;spacingLeft=4;spacingRight=4;overflow=hidden;rotatable=0;points=[[0,0.5],[1,0.5]];portConstraint=eastwest;whiteSpace=wrap;html=1;strokeWidth=2;" vertex="1" parent="C_DNRk5z5ZeW1kJs9_Bq-4">
          <mxGeometry y="156" width="320" height="26" as="geometry" />
        </mxCell>
        <mxCell id="HnR6sfjn-DypFpKfW6RM-1" value="+ profile_additional_information: Map&amp;lt;String,String&amp;gt;&lt;span id=&quot;docs-internal-guid-43efe8e4-7fff-b601-735e-5e97e169ab67&quot;&gt;&lt;/span&gt;" style="text;strokeColor=none;fillColor=none;align=left;verticalAlign=top;spacingLeft=4;spacingRight=4;overflow=hidden;rotatable=0;points=[[0,0.5],[1,0.5]];portConstraint=eastwest;whiteSpace=wrap;html=1;strokeWidth=2;" vertex="1" parent="C_DNRk5z5ZeW1kJs9_Bq-4">
          <mxGeometry y="182" width="320" height="26" as="geometry" />
        </mxCell>
        <mxCell id="424QxUdOpEg33mD_mEzW-0" value="" style="shape=image;verticalLabelPosition=bottom;labelBackgroundColor=default;verticalAlign=top;aspect=fixed;imageAspect=0;image=https://cdn.discordapp.com/attachments/1178923392611663875/1180623905837305906/image.png;" vertex="1" parent="WIyWlLk6GJQsqaUBKTNV-1">
          <mxGeometry y="3" width="492.01" height="127" as="geometry" />
        </mxCell>
        <mxCell id="C_DNRk5z5ZeW1kJs9_Bq-10" value="" style="shape=image;verticalLabelPosition=bottom;labelBackgroundColor=default;verticalAlign=top;aspect=fixed;imageAspect=0;image=data:image/png,iVBORw0KGgoAAAANSUhEUgAAARwAAABtCAYAAABz/d4wAAAAAXNSR0IArs4c6QAAAARnQU1BAACxjwv8YQUAAAAJcEhZcwAADsMAAA7DAcdvqGQAADtMSURBVHhe7Z0HWBTH+8e/dKQIAoqAgNJBsCEq2EBRRLGgxmgUWywxxqhJ/rHEWKJRExON0fgzJjExzRiNvWAJqCgqKiooSLPQe7/j7ri79793tyAodyAoatzP8+xztzO3c1PefXd2dua7asQADg4OjmZAnf3k4ODgeO5wDoeDg6PZ4BwOBwdHs8E5HA4OjmaDczgcHBzNBudwODg4mg3O4XBwcDQbnMPh4OBoNjiHw8HB0WxwDoeDg6PZ4BwOBwdHs8E5nFcBsRQlJWIUF1dtEpQLFEvgxHwJSsqlkMr3GCRSlDP7kDKftY5RbCW86l8yv5UgLYaHy3GVELBBLxUiHkqKi5my8yCqke2mw5T7xBqE+Huhc6du6PvuX8isSl8Ugx0z3sCH+x4yv6pCitxjqxAyYQImTJiERXvu14jjeBpez8WbokzE3CiHjZcTWpYkIuqeNjw820OfjS5/cB0pGu7obK0DCDIQdToctwu0YOXph4EebaDJGGBJ8lXcTK9AzcpTN3NFPzddJF+9ifQKJkZNDeoaujDp0BFuVgZQF6ThRlQKSmqdPGrw9e3Pfq+buW6xOFAoQUEeQd9cA/qOrXHwXwt4akpxeOptjN6vi023HDGvgxpEl9PhOUsNN/doYmhADmLFAL9ADKG+JlrpAtr9rXB9tyl0r+di4vhsxLfWhXFOBbIczPHX323hY8T+6UtAwQ+BsJp3GcYmupAICSZd3sSqbV9ivDPTLk1Amvc73ui4CjprfsYn/YzAqzBEx65s+/PO4MO+s3Djzf04tagL09YKhJmxuH6vAJc3jMevHkdxbU336jiOp0DmcF43JOnf0kDHOXRGQCQInUXtdJ1p3pkiNraSopd5ku+GFBIX/0sf93Ajv7cX0fJPF9J4Lyfq//kVqiAhnXvfiay8RtOkSZOqt2kbLxAJz9H7TlbUcwwb/mYQednaUMA3MSTMPkIrp8rCx1Ivq5bkMvgt5nsI+7+qESdnU2/DZPqVxwbIkdChKbeodZtb5PZhGTHFIeGlNHL3SFdEyxAL6MveN2jkrxI2gKGSR6u8bpHfBr78GCovp+VeN6n7Kh5TelVUUGF2IfGqkqoso/ycYkUaLLz0GxR+7CidCL9CSQW1U+OlRtO/x0/RpeQiJudViKm8IJdKhUzes25R2KkLlFSkiM3fMYQM/b6ldNkuL5l2T3EgY/+t8jgSl1NBbinTEkLKuhVGpy4kEXuYAkkp3b9ymo6fukTJRWI2UIHw4ofkajOTTtTMOIO4vICyMjMpMzOLcsvqqokKOjrdijp/cvWJeqq7bByPwzkcxuHYtrcnJ495pPA5jxwO7/gMshu6g/LlRzHHZf5GM0aupyihzOG4kO9X95jT5TFkDsd1IH2T+sjshJH/R+5dP6FrVVYqyaAt/g70zunHLF4Fyh1ODPV5L5W826XQHznSBjmcyugM6mKaQr8XsgEkpfQtCWTYO5uSnyhQDYp3UlBLf9qWrUir8uZy8mw3nY5WyPfozrbh1MHKnfyCRlCgb08atzWBrZ9KStg5ntwcvWlMyDjqZ29LfmsvU7ksSpxE6/vY0xsfzyZvNy/y62FDxs7z6FTxYw6HoeLQVLJweF/+XZy0nvrYv0Efz/YmNy8/6mFjTM7zTsnjqPAcrfC1pnZdBtCg3k5kZu5Dy8ILmWoPo+/Xr6U1c/pRGxMfmrl6La1du46+PcZcXJi6TP9pPLk6OJCVkS551OFU6nY4KsrG8QTcGA6DVueF2NA/HAuX/4tiNkyGVueB6JX4BcbOXInt+84jSWc8fji4CF7aivhKXj5ysrKQJd+yUchn75WoEryCbHl45v1bOHHwIsps7WH5nGpbw9YEs3vwsPUnAZg7qHoRpQiRbq4D+6p7SOa2zrSDDlrmiJDe2MEJSTIO7joHp0/P4MyRQzgefhl75jpBg4mS5u3B0k/TEHLwPPb9ugdhR2dDsHEd9uUpDoUkDaH/GuIz5piw8zvxVuVB7L0kZCNZBPdwcN8FqPfqxwbIDgvFv4afIfxyGM7vfAuVB/cyoWJc37QA3xssx4Vr/+LUhRicXaiO75ZuR5xQiAoeDzxBJaRMGwn4zHdmny+U1Zo6rKbvRlxSLL4fY9rgwc16y8ZRC87hyFAzwIDVm9A/fCGW/1tSPQCrbjkeuyL+xCzHElz4YSEGOdljwLKTyJH/QIL4Xe/ijbFjMVa+TcCq0CL5cZDcwc5Zb2BMUG90dAnAhrIp2L1jCiyeV22raWLsAmMU/ZSHcD4bpgpiTpTHh+5ku+pqcgfRKDTsMOzNnohZ7AP/qcuwPTQBZWxUZfR5RFWU48rGdzBjxgzM3nAeBcJ7SHzIukc1PQz6YCX82zAVpNMD83/5CXO6aMmjRJdWoKdtO7Rp1w9fCmbij43B8nAZanqD8MFKfygOm49ffprDFCwXkRdS0GVEMGzlhdGBy/AAONyNxm3zIZj/2RqsnNYTJkaemLxiDdasWY1FwQrH2BjqLRtHLTiHU4WxP1Zv6o/whcyVsVwWIEHaya347Z4zJny8Cb+fvI57MV/D+u/V+DlJ1g3QQKd3/8b5ixdxUb6FY/NoU9mBgGYXzPsnApHX43Dha0/kxmRBrcXzrWpdnzaYbVOC/x2W1BrIrgvNdlowZ3oz96qdEyErUYAyGx3YNXokVBudF4biTuRWjLdJxx+zesFr7nHIXbBUCtJ3QL9RYzBmDLONfR/f7N2GKY5Vf6YGNTU19rshnPoOQte2ivrS9lqEk9G38SA7HdF/f4z+rWvUI3PMo8Oc0HdQV+aLrPzE/OWjkXkSV0KiqQ2t59EE9ZaNoyacw6mBsf9qbOp/Fmt+kT32VINO/jmsWbwRF/IU9xnSSgGEmiYwa1ll5fWhi47v/g9L2/yIWSsjIPdjzwsNHUx53xCxfxQju9ZTsCfR7maEwWZl+HFnBWQ3LtKicnz7ixB9xxmBPc/rRssA+lrZSJVdvZnboCNb/0Z8jVswKWNOrVwDMeuzX3BknR/yIi4ihfmpVufucC+/iwcteiIgMBCBsi2gD5wa8kRMUw/GpsbQa+j5q26OHl7WiP7nLySIZAFliPrzCDJ6DYA3eyv8LGlS2V5DOIdTC2P4r96M8eZC5hqpjjYTNmPbwFgs6OMMZxdneIz8DZarNmKy/N5IjOivBjO3TC5wYTf3kd8okqmJug1CvlyEtn8uxJdRjZvtMsP2Fky6ZuJKeQnesbgJE69MXK2jx94qqA2mtJM89ti9DnQMsHSrGSq/SoRLt7vo3OkBInzaYct0bdUGoeuLCcFCbBvZBZ4eg7FFzxudqxyBMBwfeFjDuVsv9OndDd0WJSFwYQi6MPHqllOw7jMnHB/rDFevvujr7QmPIetx87ncdWijx4cbMb38c/R27Y5end0w5ngXfLVxSj1jaAIcnmGLVkbmGPdbFm5/5QdTY0uE7JV1A5XHNW/ZXn04EfXXGUEl4uMroWOrCzuThl57+Mi8HYf8ls5wtzGs5aAk5ZlISkpDsdgA1q6usDKonaak5CHiErIhbNEato52aK3LRjwX+MiKi0O6pA1c3Gxg2OjBqYbRvGV7deEcDgcHR7PR0MsaBwcHR5PhHA4HB0ezwTkcDg6OZuM/4XBEJSUv52pnDg6OWvwHHI4E6YdmwXPQJna/eRHzS+QSCsVVW0k5BPK5KWLwGUdYzGy8Z6ut8BwQIWbHDLzx4T48rDmvJvcYVoXIJBkmYNKiPbhfI+6ZIEnA7x8twM7bDX+G3JialJanISYyApGxmWjIROwm87I39wvklXc4wlsbMHV5AWZ8M5cNaU4EOPV/3ujo5oL25qawsHODm/swbJBNwuD/hYkWbdDeyQV25iZo7TwAc366WT3d/+WiErkJ0bh+IwVFNZ5Zqht1xeg5czHbi48zJ2NR8KyfZ0rycePYEVzLaYAnE13BCp/eWH5FPpuvgfAR+0MIOlu7YtDk2Zg2tDPcxv/Oxj0PRLiywge9l19hvnHUxavtcKSp2LV0C6TvbMa8juw0UkERcor41RcZcXkBcktqLgTkI+PmWRw/FoqzUckorHVx5SPtRhhOnL6MlOJHlykJrxB5ZYwJibIRE34aF5OL2fR1MfS7OKSnXcQnXvoI2JyMzLRz+NSTnQ2n5YklF9OZ/GTj2mZvxC4ejQ+PlyjimgA/7QbCTpzG5ZSqfCjyWMTnI/XqecTmSiDKuonz1zPkM4nl8SUPcON8KI6dvIiEmoWW8FCYXYqOHx1D5J65cK85o1fHEh4+fdDL2ezZar8IsxF77gROhMchv7KGF5OU4MGN8wg9dhIXEwqrF6IKi3OQnZ2OtKwilBblyBfFZucUV5dNRl11Irz8OUI+vg2/3+KRlhyHhLT7CPvURxEpK3deGeMYRMiOCcfpi8mo0eQMddsCcyBKHtzA+dBjOHkx4ZH9CIuRk53N2EIWikoZG5Qt6M3OQXHtTOJG2Amcvpzy2H+9Rsjm4byqiOM+p15tgunX3EfSC8U7g6il/zZSKChU0s3lntRu+lF5HFXeoW3DO5CVux8FjQgk357jaGsCq8dQmUA7x7uRo/cYChnXj+xt/WjtZZnIgJiS1vch+zc+ptnebuTl14NsjJ1pnkw/oQpxMn3Z25BG1tSO4P1Go1p60/qkKr2HCvr33Q5kNmEvlbEhT48yKQQx3VntQ94jx5BPJ0eyGjyL3u7fhVwsOtGSK0Ki8t00yc6FevgF0lA/VzIz86ZVl+SaEiRJ/4nGuzqQg5UR6Xp8QlfrkIGpODqdrDrXHfe0CGL/R2OcrMilXyAN6cfkRdeW5sh0QphS7J5kRy49/ChwqB+5mpmR96pLTK0J6PRHXuTkYEXGWjpkYs3k1cGBnHr8n1xeRHmdMMe9Y0sWE/dRjZaqRqW8hVJbkFXlJLJz6UF+gUPJz9WMzLxXkawqBac/Ii8nB7Iy1iIdE2t5Hh2cetD/KTLJJLmTxrs5kveYEBrXz55s/dYSm+RrxSvtcHJ2BJKx3+ZqvRQZqhyOOP5z6tkygLazei6PkFDu72PIqvc6uiM/qcQUv9abzEb+Iv+etN6btA096aPTOcwvBXTmXTuynnlC9kMFDXI4Esr6zp8Men+pWnNGBZLc32mMVW9ap8gkU5615G02kn7JlTkcL9Lv8gldvreFBug50JzQbPprnDmN+lXh3h6VuJQOTLYi54UR7L4CVU7lmTkcSSptH2JOPmtiFKJdwgv0gYsd63AYajRL6YHJZOW8kCIYfylHcIbm2LnTx5erAhQorZPsVNrsZ0B969IsYpA5HG9tQ/L86DTlMP8rOPMu2VnPZGJU2YKMWpmkyVbOtPBRJunMHDty//gy1cqlJJd+H2NFvdfdYSySQRxPa73NaOQvufLo14lX+JZKjOz0HGhbWMG0gaXQsBuGN3vGYLGPP6Yu247QhGoBBUSfj0JF+RVsfGcGZsyYjQ3nCyC8l8jGq0Fv0AdY6d+GuQfVQY/5v+CnOV3YuIYjX8Gsrt7o+1jVUggasPENQBc9DWi28kFAf0NoaKhBKpHdsgiRFv4jVv/fe5g9cyF2xQggFNTs6zcTomu4cMMK/kGuTC0+iTAtHD+u/j+8N3smFu6KgUDI5LOecSPldSKUSTarpE55i/psQZiG8B9X4//em42ZC3chhqlHQf2ZxPmoCpRf2Yh3mDzOmL0B5wuEuJf4kP3B68Mr7HDUoK2jBVFFw0Sn5Gh3xsLQO4jcOh426X9gVi8vzD2u0LCRSgn6Dv0wSiYxwGxj3/8Ge7dNkcfJkMknPFJC6ItBXduyew2lDFFXE2Di6g7Lxq7raaQUQtHhufAN+RPlrgMxcvQo+DoaVJelWZGKIKpkPqv/XCLTfFdQdBhzfUPwZ7krBo4cjVG+jjBoSCaV1YmzBWytWyAlNgYV7E+foE55C1W2UITDc30R8mc5XAeOxOhRvnBsWCYhJX049BulyOOYsXj/m73YNsWRjX99eIUdjgasXR2hmxCD2zUeCWgZ6EMrOxUKBYUj2Pp3PGPWVch6GK3gGjgLn/1yBOv88hBxMYUJ10Ln7u4ov/sALXoGKCQGmC2gj5PisKYizMbl79/F4uM2mPWOH3t1lyLt5zfQoX0ANsmUzhtA46QQxEi+HIXiHtOwZHowArrqIz+rvF7NnIYgTfsZb3Roj4BNsQ1z+toucLG9jysXM5nSl+PGljXYzT5rFydfRlRxD0xbMh3BAV2hn5+F8pqZVNOHgW4h0h7WFvlQXif6GDAuCOoH1mDlyUw2f2IU5RTIvylHhS2Ik3E5qhg9pi3B9OAAdNXPR1btTELfQBeFaQ9rS5FodUZ393LcfdACPQPYPAYGoE91wz29LbyysLdWryaFf9MES1f6IEIxACpDknuQZji2pLau3cjVxY/en+ZN1uwYjiBsPrm3c6KuPXuTT1fZ4PFE2hnPDkxU3KAtwQ5kbOZE3fv0oV7d3Clg3Q0mQjaG40OtxvxJteSE5VTQobdtyLilIelqqpGWXktq2ao7fRrFpCkbw2mhSbqGRmRsYkVufm/TxrNZNUcAqOjEbLLX1Ca/zam1wpVTQTe2BJODsRk5de9DfXp1I/eAdXSjUjaG04tcF5wnQfY2Gmw1mQ5W8GjvhLY04udS4l1YTl4mJuTg6UlOjt40Icid7OecUaR46G2yMWbyradF6ho6ZNDSiCwm/V1vnJyiEzTbXpO0/TZTDQlnFYjpwe9vUQdjS3Jzd6COoz6h2d4OijEc3gVa7mVCJg6e5OnkSN4TgsjdXqE7rUBA0Rv8yLylFXn07EXdei1kRdCV1QkTJcml8M8Cqb2+LpnY2JFtW2NqPXS77CD5GI5PqzH055ONyiSpzBZ4dGG5F5mYOJCnpxM5ek+gIHf7R2NQDILoDeRn3pKsPHoyx/WihaxSe8WNLRTsYExmTt2pTx8m/+4BtE6eSQVPbwuvJq/4anERrq/sjRGRUxB+4j04Vd2q8DNxOy4fLZ3dYWNYsxMnQXlmEpLSiiE2sIarqxVqKyhIUPIwDgnZQrRobQtHu9Z4nioD0pydGOmyFh0O3MG3vg1/9UljpBDEhSm4nUpMr9ABpk17y8ojpDnYOdIFazscwJ1vfescl3kSKXhpd3C3rDU6urWtXb/iQqTcTgVZu8Khzkwyx2bGIS5NAH1LZzhbG1ZLg6qqE0lJKuITcyAxsoGjkzn02HDVKLMFMQpTbiOVGPtxMK2zzFJeJuLi0iDQt4Szs/UjaQxJCR7GJSBb2AKtbR1hVyOTjbWFVw6523mV4V2hVT7W1GfVJTbgVaCSYr6bQN0dXSlwVRjVeKr/ylAZ8x1N6O5IroGrKOxVLMBLw6tvC0/Df0IPR5JxGF/8qo6lS4LYkJcfXk4qyg3awVz/FR1G4+UgtdwA7cz1X/HZoy+eV94WngJOgIuDg6PZ4C5OHBwczQbncDg4OJoNzuFwcPwXKS9BWT0zrV8Er5XDkWnX1NKmkQhQXtYU6S4+zm14G2vPNH0FeDX8c9jw9lo82yQ34O21Z9CkJOvSrhEVIPFqBM5FRCEus7zGBEslSHNxbFWIXF9nwqRF2KNEYKfxC6klSPj9IyzYeZvdlyFBWVoMLl+OQ3Z1U0shZE7Iag2jai0jnkJWQsSTaxyVyPYbn5mm0+j6EuLymoHoPecgMl9k/uvgNXI4fOyd3AGDN92rPjFEl5aiu8d8dq8xVOLe+X0ITxI04SR5jMp7OL8vHEmCZ2cplffOY194EpqUZC3tGilyzyzDAKfOGLVwFdasmI/xIz7B6fqWZ6kboevoOZg72wv8MycR+7jAjqgxmjc1kSD/xjEcuZaj2OVdx+ZRLnD2fwdL5g+Hh1MA1kcybpdxnlvHeMDNzQ0u7c1hamEn/+7WeQb+KgAKdo2FedsOcHZ1gFXrtnAeOB9/JbyAtWeNri8d9FryNQKuzcOMHcn1XwiakRfscAQoyikCv+pEEJejILekts5Jxk2cPX4MoWejkFxbvKZODZT6dU6Uo1QzRgY/AzfPHsex0LOISn6k1SJDDQTegys4zRyXUu9b6BqCGkA8PLhyGicvptR+sZ0SzRgFKrR+5Ek+wJXTzHEpj96frkCZ9gtDXdo14jh8v+Q7aHx0EbEXzuB02CXEXNuMIdXz1ZRoxjAngqWHD/r0cobZY8u/Gqt5o0CI7NhzOHEiHHH5leyyDTFufT0Ha0tn41RMJMKvxOD4tCJ8MX8zYsgVH55MRWZmGi5+4gX9gM1IzsxE5oPdmMy+rVnb5zNcT89CXtpFrLI+jjnv/aiIaArKbEhpmzahvoz6Y8XXwbj3+UocqG81R3Mieyz+wijeSUEt/WkbKxdReXM5ebabTkflKxUq6c624dTByp38gkZQoG9PGrc1gZUaUKaBopiyXrfOCY/+HNOKfNYnVcsVCCMWkrPtLMWOCs2YyjvbaHgHK3L3C6IRgb7Uc9xWUsjoFNPOIAPqOCiQPFx9aKCnFRm7LqAzjRe8UdSJQUcaFOhBrj4DydPKmFwXnGE1dJRpxjCo0PqRSXYYdBxEgR6u5DPQk6yMXWlBVSZVaL8o1a6pvEUrPA2oywfhlF/HRDVlmjHVVByl6Vad6ZNqvYvGat7IDo2l/41xIiuXfhQ4pB9TJ7pkK1u2URlNn3YxpdG/F8p+JUeSvoUGGPamL6v1QcSU/GVvMhz5a61lK/k7hpCh37fVsicVh6aShcP7ip1GotyGVLRpFU9dXyziu7TOx4QCd2SyAS+el9fhiOPp854tKWB79hNrS5TrwigcTt06JzKH05LMOgVQcHCwfBvl50TG1qzDYXj0PzU1Y8QU/3lPahmwndXYqYnM4bQgE981dEmm8sQLpVntHei98Jqt/pTI6qSFCfmuuSQXjuKFzqL2Du9RdZI18lBTM0a51o/C4bQw8aU1ikxS6Kz25PBeOPNdhfaLSu0a5rh/l5OflT617jqWluyMpMzaAjDsJ8MTmjEMT5xALE+reZMrodTtQ8jcZw3FKDJJFz5wITuZw+HtpQlmbvTxpdr/+7aVA807WxXWAIdTkUK7QxzIatI+RWSjUGVDDEratJqnrK9HVNKVxe5kPmk/u//ieXnHcDTsMOzNnohZ7AP/qcuwPTShWg9YtS4Mc/dQp86JDHWYe72BqdOmYRqzTRnmDsNqdQFlmjEasBv2JnrGLIaP/1Qs2x6KahkdOVroNm4GesgW/mq3RVtTAfi8Js6l1OqGcTN6QJFkW5gK+KhKUplmjHKtHwVa3cZhhiKTaNvWFAI+j/muQvtFpXaNOloPWIWw+Ov4ZUpbRK8NRKd+S3C6gL3RaYxmjAqUtzcf1y7cgJV/EFyfyCTJZSZq/ysTxuRdswHyIKJLK9DTth3atOuHLwUz8cfGYDamMai2ocboADUMddhYtwU/J5vdf/G8xIPG2ui8MBR3IrdivE06/pjVC15zj0OuXlOfLowSnRPZQIaRY38MGz4cw5ltaE9b6LG/U6UZo915IULvRGLreBuk/zELvbzmgpXRaV5Uacao0PpRhVLtF1XaNVUYOmPo/C0IjT6MkLKt+HKPzLAbqxmjAqXtrQ5R7UxCUpVJzXawMc/BvXuP3tMgyUpEcpkNHOzqV2jW9lqEk9G38SA7HdF/f4z+rZt2qii1ocbqADUQgVAEdd0W7N6L58U6HC0D6GtlI1UhXoMjW/9GfI0hddnVqJVrIGZ99guOrPNDXsRFpDA/bZwujCrq0YxhbFi9lSsCZ32GX46sg19eBC7KMtIAnlozRgWqNWPkmaxD60cVKrRfVGjXMNd/5kRnv8pheg6kDUNDXVkm69GMUcFTa95ow8XFFvevXJQ//i2/sQVrdt9XPJXR7oZhg82YntZO3JF1VKVFOP/tL0jsOw5BbRtg9pp6MDY1hl4dvqlRbarEhurVAVKFkvp6hAC3b9+DtZsru//iebEOR9cXE4KF2DayCzw9BmOLnjc6VzWwMBwfeFjDuVsv9OndDd0WJSFwYQi6MPHqllOw7jMnHB/rDFevvujr7QmPIesheztL49BEx2HBcDy3AF7du8Ot3ydIMbZgpQ+ECP/AA9bO3dCrT29067YISYELESLLSANQN7SAqUYGzh4JRxZ78W0smh2HIdjxHBZ4dUd3t374JMUYFuztgTD8A3hYO6Nbrz7o3a0bFiUFYmFIfTKo6rCcsg6fOR3HWGdXePXtC29PDwxZf5P5M3dM/zAQiUu94eHRFSEXeiC4u5biMP4hTLezhlt3H/Tt2xMdXd9CuOcXWD3ORJZJDAt2xLkFXuje3Q39PkmBcVUmBYcxw7YVjMzH4bes2/jKzxTGliHYW9UJ0e6KCdOcETazEzr18oan9wcIZZyF8vbWhPv0DxGYuBTeHh7oGnIBPYK7M25Uhg76Lt2K2ZVfob9LN/To3AkhET7YvGU6bJpo9U/fpsptSFWbNra+qik+hX1njDF0VFUP/8XzEize5CPzdhzyWzrD3cawlgeUlGciKSkNxWIDWLu6wqq2eA0aowujCqWaMZJyZCYlIa1YDANrV7haGTTcUzdKM0YFSjVj6tP6UYUy7Rfl2jXikgwk3WPaRqSL1h1c4NCmVmy9mjHKeXrNGykvDXfulqF1Rze0fcIGBMiOj0euji1c7EyYG/VnQGPaVJUN1asDpApl9SXAtRX9MPrWHFzYP63JTvZZwa0Wf46IY7dh8vRvcLP1JHy3axn8mjgOwPHieTXaVIq80AUYNDcdC87sxdQOVS77xcM5nOcJpxnz3+OVaFMx7v72OU7Zz8f7PsZs2MsB53A4ODiaDe7Cy8HB0WxwDoeDg6PZ4G6p/hMQ+GVSoIVG7XkjYinKKgA9Q3X5kwsxXwKeRA0G7L4CgkB2rJ4GdB8bW5T9XqipDn1tdiaaRIpyPuTHyybj8ZjjqtZzMqYEzRbqMNBhfysSI/GWAFkCNbS214WzpUaN/+R4XeF6OP8FxAJ8PSAWgzcJFJPe5BDurEtE+wmFyJPNFRFXYG2/W2hlnozvHta4xghLMa/jXSyJfHxCiRR/TYzFoE3C6jRFVzPRq1O6/LvkXi4GtYmFnVsc3Njtze9lk0AIuWcyMcApHqMWZmHNijSMH5FZv3QFx2sB53D+C2jqIniELmKOlSC1yjtIhDh8XAifYCP5mjLx3WIczW2J4Z0qcPhIJeNOngG6LfFtcidkZso2Dxx7X1fu/L5fkgeNj5wQe8ERp8NcEHPNuoZ0BcfrDOdw/hOowWWUEZxulOBIuqL3IkkpxrFkAwQHaTKNTEg4WILsAWZYM1YX0YdLkPFMPE5dECTMXXr+fREaqkPE8frAOZz/CJquxhjuyMeRo7LeC+HhkVIk+RghqLUa430EOMD0avoNN4TbCCO4XmN6O1nPYOhOxMeWt1IwerRsu48vIhgPo9kCc79sg1Z7UuDa/R6W/lyOrMYK+HH85+Aczn8F2W1VkA6uHWF6MmIRjhwTwJu5nTJjWliSwDiYNAMMH6gBDXsjDHPi47DcMTURTW34TjbFtGnMNt0EA+1lA8ZqaD3AEmHxLvhlihai1yajU78MnH5cHpPjtYRzOP8Z1OA22gh2USU4FluCo3f1MXqY4nYqkbmdullajlW+8eji+QA7kyW4eLgUufV4HHV1NYgfPYaCbGm0WLOGdoK6JjyGMD2r4cwWZITuljXiDHUxdL41QqPtEVKWhy/3yGQkOF53OIfzH0LTzRhB7Xn49eNC3OlljED2durgESF8PrTGt19Z4Stm++5rU7SLLMaxPNW9DjsHLTy8ymOV/6WI+7ccRW71aatIH5OuYEJIDYayR+kcrz3cPJz/FISbK+6ixxoRgnZ1xP5JmpDczUbfPuV4+4493jZneyAiHhZ3S0bch244/BYfM+1T8GuxevU8HG1/a+T9YwpJahHmjkjDgQpt2OuLcZ+nhxX/tMc77uqQJDPpdszELV11KKb+qMHzU2eEvVuBSU7piG6rDdMWhML7ldD0s8CfP5qhI/ek6rWHczgcqpFKkBEnQIZEE46Mx2jVABkgcYkISfcqUSxSQ+sOunCQPZfn4GDgHA4HB0ezwV16ODg4mg3O4XBwcDQbnMPh4OBoNl6AwxGhpKT6rfIcHByvEc3scCS492sIfMb+j92vQozif9Yg8ptT7P4LQFwBUVkpRKVVWxkqhbKVkGKIy8qYuDKIRUpmyokTkbJmMW6eymQDmo408R9cXfwNUjMfrf9+fohQ9PeniPjyJHjVfyeF4Nx3iPzoI1z8aBFunEh/cmbyCyq39P4RRK/bj+KneUdLIyBeFopuXEdeYq5szuNzpzFPb5rXTppOszoc4a0NmLq8ADO+mcuGVCFF5b1LSLuewe43P5LIr3BqxHAcHdQP+/oH4OjwkTi78y5QcQKR/fvi0NAgHOrnjX+GTkPUP/GoNW9WykPJpVPIy3h2jU68e8g+db2GA3ieiCF8EIfC+DSIqq1eHVqug+A4YRxMBJeQlVjMhtfgBZWbiuKRefY2BA3wI5KYrTg1cQvyn2o9VwWK9y7C8YHDEbZkJS6/E4yjHx5h454DohjEvDURMTFPv+isee2k6TSfw5GmYtfSLZC+sxnzOj7+sg7GuPX1oKZnwO7LEEKUXyLTkFIg5kFYUFZD74UJyolHzvlzyIyKQVmty10FePGXkRl5C2WlNaxSwoewkMekIUJFwhVkRT9EVadFo9+nCAoPw6DZ7tDsvQQjzjHf53RURGq6oePvYRhz+TyGLOmM4o3zEX2+xrta1Q2gpacBTQNDNqDpqBnoQ0tDD1qGT8pWibPikR0RifzUUvaqKIG4mKmrikwUXEuEQMKUL/4aCnMeGbC0LAOF1yKQcSEapTXrSlYneTwYTduOwV9PgFGNeTYabZzQ2rMzWhorkc5q5nJL8hKRExGBnJQiSGt2ByRlKGfKm3nuAvLuF7P9GRFjP3kQZGejopQHUUEeKvKYrbTmSV23nUhufY/Ir5Nhvv4IRoUewfCwU/Cfo3jHl5RfDAGPSUOUh6Irkch7WNUGLBVZKLwcgaxbqdW2pYCxuox45EYw9hp9H0K2CSSl+ajIzwY/rxSVJQWKPOaX1rbzJ9r7Earq62Wk2ebhSOLXoo/vNbx7ex9C6ni1hvge0/BFNrDxtFQElO3H2YHHYHn8BziZqUN6dytOvZsNjxNrYKUjRslf83H2+3Tou1pDg58PrcHr4fNWe6iLHyBl8fuIy7SDadtC5MdowH7jd+jYSQ/Shz/i39lxMPPORkacDrQK4iEasBHDl/oo/pNp5rKdU3AiehxGbx2hmEFbcQTn+++G2d7f4GYra1QhslcPx8XSDzFiQwD70jU+ShgjE9r4o43lM2p4PnPliiiCob8n9KuTFKN0/2Kc/yETRp3bQnAzBmqjN8L3bT3cnbwcBa3VwEvIhG7PPpDG3kCp1B/99iyAmfg4IoO3oczSCjpgnFKiIZy2/QyPzjqgnP2InPEDCsoLwTd6C4P2zYdprcl9QmQsG4JbrbdgyHz3x65QzVVuEYr3fIyI7cnQdbICMm+joCIAvseXo602Hw8WBeP2Q0voGwO82ERoT9yGgTP4uBWyGum5heAVqaOFhRGTdzXoDFyOgI96MVWpzE40kb1qKCL5HyPoi8GPvceKsY8fpyI8rgvaZp9DoY4eBPFlaLfxL3T3MYT0wX5cev8H8Ow6Q6/wJvI1RqPPd7Ngpsf83XGmx7TtIfSsmExmxqLEcCL6/zwD4m9DcDUsF4LMIqiZWUCb+UM1o4Hw+vUjpmxK2ntWJ3Z2N0Od9fUSI3M4zUHOjkAy9ttM6RI2oD5K/6Fwr+mUkKc4QBK/hU74fULpAmZHnEKxb3pR2F95JJXHViGhisPzaf/EHVRcKdsXU/H3E2jf3AOK2Ac/0MnO3enEl5FUwSQrvvQZHRqwXB6nQEylP02kPXMPkfxwGfzDdM5rAt15IGYDJMT/czrtmfgTlVYFNRPSgsN03nci3U5S5E6S8j2d9JlLKblJFDvOk459c4vKfp9Gfw1ZRRl5xymi73t0r1z+0xr1VE6pi33p8Ppr7L4C8dlPaH/wN5RfXfAqBJT+iS+TdixT8heDNPMvCuv7FsUmCOX74utf0JHBqyhLsStrkmpEZxbT/qHrKYeNE19aRYdGfEV5Vb+Vo8JOJJl0d2p3OrUzrY7yMvbxwwTa3X0sXY/MZ+pUSFmfDaYDy88zxxXQvfm+dHJHkuI4xkZvT/ChswcK5EfWymT5GYr0HUrXrrGZEl6iqMEjKPpWrUwqb++qJF9BmumWSozs9BxoW1jB9Fn8o0Y7WAV2QtGmifh36WYkRdxnx1TEKLwey9wlxCB+1ae4/OlKxF8vhiT9gTxWjq4PXOZ6Q5fJh4ZHCHqtHs9GNBzG0pjLkBpzvWxepHHXUSDko2DXKqZsnyJq53UIRekoy2I64OoWMO/jAg0NDWh36QNzfeZ6rkZsF1wE/pV9iN2wBlHL1+N+ohBS4auzelt6JxpFbbxhZVf3ezMl2VeQ/L8NuLpyOa4fTIRExJSPjasbVXYiBakcD1GDhs8UdPI2Zb5pwzRkLXqOd2GSjENerBDimF2IYtrm8sqdyC0WofwBO6AuykbOvv8hes1KXFl/EEVCEaT1NIHS9s5sjiHs50MzORymaXS0IKoQME39LNBGqyk7EPTHMrS3yMGDlRMQuvo8c1oxMM5A06Y7rAcPho1sm7QEfT4dJT9KDuMoqj2Ffnu08XnaF73zUHD7PrTtHWWa5c0LMSdDCxu0GciWLWASPDd9ig42qjMiCluNM4uPQWzfC1aDBqKNLdPHf4Wgyse0e6SSR2MZJWG4OmUxHvDt0XbAIFj3sEVNBQ2lKLMT9VbQt9BBeRLjuNifPo6azIZYtNp7wsK1NfONce7UAobdByrSGxwA5yWb4DXKlokrQfrqKYg8xodRrwGwHtgDLfUakEll7W3bgAVtLynN5HA0YO3qCN2EGNxu6EC8pj40NfPBl3lzSRYy/gxFSQ0LICbr2vZ94TBvLfov6AHh9WiUiTVh3NER4nsZTO+lNyz79lVsnu3Zo5qIKA/5e1bj5nkLOLzZo0FvIaCs/YgY5I+wXYn1XHXrR925I4yZe/ZyXQ9YVJWtjydaqhyzFaMsJhYij2B0HO0PC5cWEOZVvQ3/+fFMy93BDvoZMciTCfjw4pG4/TjKWVuQpsagoMwD9jNHw7q3CzSL8iCuOSrZQg/qJdng1SqyKjvRg3mAL3BmO2Iv5LJ5F0OUX8dTuppoOsPEkY/SDF2Y9mbT69sHbdozjSNORX5sGUyDZ8LevzdatShCBb9WJqGpU8LYeu12aVx7s0izkLJwEA7O3PUU0weeP83kcJjOhO8I+BUfwd6oBk760/FCe38REueNwYlRM5Gg2+XRSmXRFUSPHIAjY8bj1EQmfuNDWE4ewcSrQ2/UAni0j0DEsCCEhoTg5NiRCP8hnj1QOZKwT3GwlzdObImBOGIV9vfwRuiWWEWk+DZixvpgr+84XA7VgeM3m9HRtWGvxVfTbw0djVzkno1CRRPPPLU2o9DlvfbIXDAMR8eF4PSEsTg26wcUqTQoTRj184fhtfUIfeMNHJu8GeWGras7eYpy98A/HxxBRdLP+NenJ/YvOsnECJH+qT/29uiLC0fyUPLzNOzr2R+RJysUB9bDsyy3uuNouPR9gFtvjcKxsYuQ5+EPU8VoPdQd+sHa9hquv/kGQodPxq00w1o9Tw3XYbDvcAVXgkfhJFNfJ7+IYEJV24m27wfwmdYKaQsCsN8/AAf798GRZbI6UYF6G9gteA+GEQtwNGgcTodMwImRs3AnnmkcTQdY+dsid/2bTBsMx5nNadBqXSOT2q6wDe6AnOXBODaeOW7CF8hkLsyNa28WdX20MNZAxdWzyJG/tuPloBlXi4twfWVvjIicgvAT78GpQbcjFeAnpUCo3wHGlvrVJ4kMKS8XZanZqBTrQc/ODnr6NX2nBKLMFJTmi6DZyhKG1iYv7p1I0nykvBeEO+2+xbClDesV1Ye0LBOl9/Mh0WW6/7bW0G2Azoy0OBUlWQQ9e1voNMxXNo1nXW4pH7zk+xC3coBR68cKLC5GWVIWYGEPQ+M6Csccy09JAV/YAi06dIB+9eMc1XYir+cHBSBDCxi2N3v0ZEgVkjLwUu6jQqQLXUtbGJhU5VUMYWoS+GSBlrbGddSHFOLcFJRkC6HZugMMLR69u7wx7S1Lr2L/ezi6ox36HV4K8+Zo8wbQvPIU/Ch8NmgsTgf8jYjlvdjA/y7SxN24tOxXFLUaDq9178DcpNk6lC+U17XcLw3iRCQuWYaEu63Qftk6uPc0qXWxfpE0ux6OJOMwvvhVHUuXBLEh/2H4+eDxmR6Ymd5L0+DNwuta7pcGPioy+dBqy/TKXjJfzwlwcXBwNBtcX5eDg6PZ4BwOBweHcspLUKZyIuTT0UCH86LlI2QSEXxIajzdkwp5rHxEI6m4irhlO5BdYw3m4zz7pf/iOtMTX92JyzsuKSYuPhMqkLNzGW5fUlG4BlCXDISk+AEKrl9Fbkwy+A1YokwF5xC7SCZx8REivz5RPX+mNk14bCu5j/sb1iElqWYmeeAl3EJ+cl715D0S8WpIjzySIBHLK13E2Bezr0KC5HnYwrM7pxogJcKgbOxEedmEuLxmIHrPOci+KqjpNNDhvGD5iIqTuDR4JhLSqipEhPxvxuHYukvsfiMQpyH31BWUCpXX5LNf+i+tMz1p2jWkXnlYy6E2DTHKr51C7kOhUiNrCLVkIKQFyN48DUeC5+H6d9sRs+4jnN8cqXQ2bhVqhq6wHj8BDu4CZF9MhPCxDDVOPqIGkiIUnTuLwgJF5Ynv/IZzQUMRtmoTrs8dhSMzf0Aec4ku/WMBjg8fjqNBg7Dfpz8Oy74PD8aVE8VA8SFE9O2HQ8OCcNivD/YPnY5rx+/XKtvzsIVnd07VIyVSj/yF8rLpoNeSrxFwbR5m7Eiut60bQgMdTh3yEcISVJRUVBu0lFcMQVnNAlWAHx+FjHMRyIl5WL0cX8HTy0eopu6l/9VU5KAo6jwyIqKQ/7BKvkCGGlPbFSiPiWSOe1xOgIl95kv/mXpUlp7scU5FBvIjLyAvtayGo2hs2WQQxBkxyLoQjbKy2jGqJA/qkoGQpvyNm7vV4frHQQze+RP8dx/EkKV9q+eTKJW/0G4D466eMOtg/NgTqwbIRyiVemAQ5aH4agQyo1KYOmEzKb6L+M92oHLcjxj65y8IOLAddqU/4fpvyTCc9gNGnTuHUb/PhkmL3vAMPYfR586g90hjxbFaXdFpbzhGX/wXg95ri8zP1iClxmX9udjCE5IsLErbVLktKJMSaYj8hcqyGfXHiq+Dce/zlThQwIZVI0TG9Qu4nddwV6SxkoH9rgJ1aJrawKijB4wsFfOqRYc/wOGtAtgPd4eWGtM93DEFZ05awnVAe6bhk5E4LwSX9ieAn34H2SejgR7+MDVm/JtMFuDjtxF1LAOi1DDEfXsE4i6D0cZci7nS78LZaX+jLOV33Pr7JvIP/w+JGW5w9hYgdVcs9MYGo7UsDaa6eBf3IE3cFy6+NhAfX4ITKw6h8EEy8o5sR+xxIdoEeUFPkzkRkv/C+ZAlSEnIQfmdSKRFS2Hu7wGdyng82HURJfEHkBQej7x/tiEpxx0d+rSrPonUWpjCwKEjTF0tod1A16wadRjYWj6RniT+GO5eTELRgT3IiL+OlG17wHcfCct22o0rm7oIRcd2ITspHil7wlF0/R/E7smB6cg+MJBLHnyMf1ccA680Fek/fIv7/C6w8TRncieTgfgQ/y7ajYKMB8i7cBWllQ5oP7E/9IuikPJPPLT7DkFbK93azoN/HJfGrMD9uw9QcuMIbm85Dkn3IJi3fTRVjh6GIeGKPmzf6AU9WdlFUbg1YyFunbwDfk4ScsNO4P6Bg8gocoKDTzu51EPk2yvwMKMU5WE/4NYRPswGe0JPi6mvpD24OHURkm5noJQx+Nx7lTAKmggL3t+I/k0HTp9PhIku8x9arWEouoTYcDXYjuzK1AuTj5IbuPd3FkynDUUrdrYyBHF48FsSDN8aCTMDbejYqKFw90mIvd+EpZXCGp6HLTx+TslQ3qbMqaPCFhRIUBb2O3L0h8KhVxumjUTI/XYGLmw+icLsHJREheHh4QO4H1YE4xE+MGANvb6yadvYoXz/EhzUmYyJno/yKrn/LUZ0ewvrU1ww9w13pj/UAGSPxRuD8J85tGf6buLLV91XUuGWsbT/k7PyONky+lCvmZTISks8opHyEfyjdN7Lh47NnEfn5sm29+h0YE86sCJCfpzypf+y9N+kPTP/YvNZA5n8RVdvOr39Jsl+WRmxgg4OWUPZtRUCmgVZXf7lPYVib5Yye3zKWOFPh9ZcUUQ2pmxUSslzutLeKdspT55kBF3xH0JXrwhVSh6olIGQFFDWlqm037M3HV+wiZJv5DI5eERj5S/qlI9QJfUgyaTEWX3p5PYExf8Lr9P1YYMp6pKQKkM/on3Da6clPruM9g/5vLpdJQ9/opPd59I9vmJfTtHfFNZ9Kt3Nlv2bgMqOLaJDvh/TwyJFdPOhqk1lKLOFKpRIiSiRv2g4lXRlsTuZT9rP7rMIE2jfyo/oq9OZtf9PBc/EVz+Oert+sO2UgJsT38alzXuQeZ/HxjRBPkLdFCYBo2AXHMxso2DlqK8Il6F06b8GDPoFwixhE06/vRS39kSA6b0/QtMVNmM85CJL6mZm0BFW1F7414youQ6BvYfs6qGFFmbGkFSwa5YaWzZowmTIGJjKkzSDrrEQ4gpSKXmgUgZC3QRt3/sZQXvXooNZHO7MHoUzmyKhGAJ7xvIXqqQeKu8gL74N2va3q3N5AGPT7HcW2b6axmO3c3VQeROx4/1xoI8fTv8kgsOXi2DN3m01H/W0aSMkLp4N6rCxbsv0RLPZfRZtJ4xZsQEf+lswv2gYz8XhQNsFLjsOY/CyQOjnHEXUhHG4er5EEddY+Qg1Q7Ts3h/t/PyYrS9MLWV9Zhmql/5ruEyB3+E/0D3QAvyjK3Fy3GpksFl5+XkOZVMheaBSBoJFq0M/uHyyA4HfjUDlnz/hYb70OchfqJB6YM4wqWzsoroamPKwmVYzt4BuQTrKq9cHS1Dx4CEqLWxgUN9CKC13uP2wD8NOn0fwPxvh5vVilgMob9NGSlw8IwSMc1PXbcHuNZ5GOxx1/RZQz88Cj2l8adZZJIbeq2GcjAWoG8Go7zh0WvsdOvcoQm50GhP+HOQj6lv6z2RFzcgeluPmwfu7BTAvuo78tMdHXp8WKXj7F+KQ/0zcTWxqWip4DmVTJXmgSgYCIlGtgUb5Wa6lDy1tadPkL+qSj1Al9aDVAS0tMlBwI5exNx4K/9iOB6yIu4Zbf1gYRyF5v+KJCpVcQ8LBh2gzpD9a1GvpmtAwNIZ2i/o802M8axkIZW1ar8SFKuqWv2g4Aty+fQ/Wbo9pRxUfwizndvBZcQENTbnRDkfDaxisRbtxfsxYHJ/5BzS6OFcnJrnyBY4NGIoT4yfhFBN/82FfuIxwYWIaLx+hFJVL/0XI+WIkDgwdg5OTJuLE2I0o6zsZ7V2e0qieQJ35D2Oo5V5FelTeE72AZ8ZzKJsqyQNVMhDi8E9xeMBwhL7FHDN+BI7+XxRMPngfNsaNlb9QUKd8hEqpB0fYT+2L0m/ewrGRY3Ep2gPWHdlManui47JxoJ8n4+iYN3E8eDHyui5B99GWz6+38kxlIFS0qUpbqEdKRIn8RYMpPoV9Z4wxdFRXNoClhTla6+bj2uHTaOh1t2lrqSpyUZxSxFx0HKH/mDxEZe5DlGWXgfTaoqWdObRquTbVsgBPj4ql/xIe+A9TwS8TQ7OtHYzMa8tcNBbK349zQTtg8O1hdO/xPNf+P5+yKZU8UCoDIYYo5yHKmTaVareCgZ1tLZmEJslfKJOPUCr1IIU4KxmlvFYwcmj9pO0ImZPuXiE0LDrAoC65imfKM5aBUNmm9UlcqEK5/IVqBLi2oh9G35qDC/unwabWQUXYP9kDcyXfIP6PsWjIkBe3ePOpEaN49xJc/vUudIYvg/c7PeUD3ByvIS+xDMSzQYq80AUYNDcdC87sxdQOj1yc5MEfmPvWZwjXDsKXv36JkfXI3FbBOZxGIM7PRCXTc2shn1DC8fry8spAPBvEuPvb5zhlPx/v+zzWf2F6kWkF2rC0NHqqnhbncDg4OJoN7hLNwcHRbHAOh4ODo9ngHA4HB0ezwTkcDg6OZoNzOBwcHM0G53A4ODiaDc7hcHBwNBucw+Hg4GgmgP8HjNXNUTW0lbsAAAAASUVORK5CYII=;" vertex="1" parent="WIyWlLk6GJQsqaUBKTNV-1">
          <mxGeometry x="510" y="3" width="284" height="109" as="geometry" />
        </mxCell>
        <mxCell id="NXb-ZY6QCttmDnAPTIDF-0" value="logging" style="swimlane;fontStyle=0;childLayout=stackLayout;horizontal=1;startSize=26;fillColor=none;horizontalStack=0;resizeParent=1;resizeParentMax=0;resizeLast=0;collapsible=1;marginBottom=0;whiteSpace=wrap;html=1;strokeWidth=2;" vertex="1" parent="WIyWlLk6GJQsqaUBKTNV-1">
          <mxGeometry x="220" y="480" width="170" height="208" as="geometry" />
        </mxCell>
        <mxCell id="NXb-ZY6QCttmDnAPTIDF-1" value="+ log_id(PK): int&amp;nbsp;" style="text;strokeColor=none;fillColor=none;align=left;verticalAlign=top;spacingLeft=4;spacingRight=4;overflow=hidden;rotatable=0;points=[[0,0.5],[1,0.5]];portConstraint=eastwest;whiteSpace=wrap;html=1;strokeWidth=2;" vertex="1" parent="NXb-ZY6QCttmDnAPTIDF-0">
          <mxGeometry y="26" width="170" height="26" as="geometry" />
        </mxCell>
        <mxCell id="NXb-ZY6QCttmDnAPTIDF-2" value="+ user_hash(PK, FK): int&amp;nbsp;" style="text;strokeColor=none;fillColor=none;align=left;verticalAlign=top;spacingLeft=4;spacingRight=4;overflow=hidden;rotatable=0;points=[[0,0.5],[1,0.5]];portConstraint=eastwest;whiteSpace=wrap;html=1;strokeWidth=2;" vertex="1" parent="NXb-ZY6QCttmDnAPTIDF-0">
          <mxGeometry y="52" width="170" height="26" as="geometry" />
        </mxCell>
        <mxCell id="NXb-ZY6QCttmDnAPTIDF-3" value="+ action_type: string" style="text;strokeColor=none;fillColor=none;align=left;verticalAlign=top;spacingLeft=4;spacingRight=4;overflow=hidden;rotatable=0;points=[[0,0.5],[1,0.5]];portConstraint=eastwest;whiteSpace=wrap;html=1;strokeWidth=2;" vertex="1" parent="NXb-ZY6QCttmDnAPTIDF-0">
          <mxGeometry y="78" width="170" height="26" as="geometry" />
        </mxCell>
        <mxCell id="NXb-ZY6QCttmDnAPTIDF-4" value="+ log_time: DateTime" style="text;strokeColor=none;fillColor=none;align=left;verticalAlign=top;spacingLeft=4;spacingRight=4;overflow=hidden;rotatable=0;points=[[0,0.5],[1,0.5]];portConstraint=eastwest;whiteSpace=wrap;html=1;strokeWidth=2;" vertex="1" parent="NXb-ZY6QCttmDnAPTIDF-0">
          <mxGeometry y="104" width="170" height="26" as="geometry" />
        </mxCell>
        <mxCell id="NXb-ZY6QCttmDnAPTIDF-5" value="+ log_status: string" style="text;strokeColor=none;fillColor=none;align=left;verticalAlign=top;spacingLeft=4;spacingRight=4;overflow=hidden;rotatable=0;points=[[0,0.5],[1,0.5]];portConstraint=eastwest;whiteSpace=wrap;html=1;strokeWidth=2;" vertex="1" parent="NXb-ZY6QCttmDnAPTIDF-0">
          <mxGeometry y="130" width="170" height="26" as="geometry" />
        </mxCell>
        <mxCell id="NXb-ZY6QCttmDnAPTIDF-6" value="+ log_detail: string&amp;nbsp;" style="text;strokeColor=none;fillColor=none;align=left;verticalAlign=top;spacingLeft=4;spacingRight=4;overflow=hidden;rotatable=0;points=[[0,0.5],[1,0.5]];portConstraint=eastwest;whiteSpace=wrap;html=1;strokeWidth=2;" vertex="1" parent="NXb-ZY6QCttmDnAPTIDF-0">
          <mxGeometry y="156" width="170" height="26" as="geometry" />
        </mxCell>
        <mxCell id="4K3doCxx6NTi6xI3MMUs-1" value="+ log_hash: string" style="text;strokeColor=none;fillColor=none;align=left;verticalAlign=top;spacingLeft=4;spacingRight=4;overflow=hidden;rotatable=0;points=[[0,0.5],[1,0.5]];portConstraint=eastwest;whiteSpace=wrap;html=1;strokeWidth=2;" vertex="1" parent="NXb-ZY6QCttmDnAPTIDF-0">
          <mxGeometry y="182" width="170" height="26" as="geometry" />
        </mxCell>
        <mxCell id="NXb-ZY6QCttmDnAPTIDF-7" value="" style="edgeStyle=entityRelationEdgeStyle;fontSize=12;html=1;endArrow=ERoneToMany;rounded=0;exitX=0.5;exitY=1;exitDx=0;exitDy=0;entryX=0.5;entryY=0;entryDx=0;entryDy=0;strokeWidth=2;" edge="1" parent="WIyWlLk6GJQsqaUBKTNV-1" source="C_DNRk5z5ZeW1kJs9_Bq-0" target="NXb-ZY6QCttmDnAPTIDF-0">
          <mxGeometry width="100" height="100" relative="1" as="geometry">
            <mxPoint x="390" y="480" as="sourcePoint" />
            <mxPoint x="220" y="440" as="targetPoint" />
            <Array as="points">
              <mxPoint x="290" y="460" />
            </Array>
          </mxGeometry>
        </mxCell>
        <mxCell id="xMk1kvVIFYvAqJbKu6IV-8" value="user_profile" style="shape=table;startSize=30;container=1;collapsible=1;childLayout=tableLayout;fixedRows=1;rowLines=0;fontStyle=1;align=center;resizeLast=1;html=1;strokeWidth=2;" vertex="1" parent="WIyWlLk6GJQsqaUBKTNV-1">
          <mxGeometry x="520" y="720" width="180" height="210" as="geometry" />
        </mxCell>
        <mxCell id="xMk1kvVIFYvAqJbKu6IV-9" value="" style="shape=tableRow;horizontal=0;startSize=0;swimlaneHead=0;swimlaneBody=0;fillColor=none;collapsible=0;dropTarget=0;points=[[0,0.5],[1,0.5]];portConstraint=eastwest;top=0;left=0;right=0;bottom=1;" vertex="1" parent="xMk1kvVIFYvAqJbKu6IV-8">
          <mxGeometry y="30" width="180" height="30" as="geometry" />
        </mxCell>
        <mxCell id="xMk1kvVIFYvAqJbKu6IV-10" value="PK, FK1" style="shape=partialRectangle;connectable=0;fillColor=none;top=0;left=0;bottom=0;right=0;fontStyle=1;overflow=hidden;whiteSpace=wrap;html=1;" vertex="1" parent="xMk1kvVIFYvAqJbKu6IV-9">
          <mxGeometry width="30" height="30" as="geometry">
            <mxRectangle width="30" height="30" as="alternateBounds" />
          </mxGeometry>
        </mxCell>
        <mxCell id="xMk1kvVIFYvAqJbKu6IV-11" value="user_hash: string" style="shape=partialRectangle;connectable=0;fillColor=none;top=0;left=0;bottom=0;right=0;align=left;spacingLeft=6;fontStyle=5;overflow=hidden;whiteSpace=wrap;html=1;" vertex="1" parent="xMk1kvVIFYvAqJbKu6IV-9">
          <mxGeometry x="30" width="150" height="30" as="geometry">
            <mxRectangle width="150" height="30" as="alternateBounds" />
          </mxGeometry>
        </mxCell>
        <mxCell id="xMk1kvVIFYvAqJbKu6IV-12" value="" style="shape=tableRow;horizontal=0;startSize=0;swimlaneHead=0;swimlaneBody=0;fillColor=none;collapsible=0;dropTarget=0;points=[[0,0.5],[1,0.5]];portConstraint=eastwest;top=0;left=0;right=0;bottom=0;" vertex="1" parent="xMk1kvVIFYvAqJbKu6IV-8">
          <mxGeometry y="60" width="180" height="30" as="geometry" />
        </mxCell>
        <mxCell id="xMk1kvVIFYvAqJbKu6IV-13" value="" style="shape=partialRectangle;connectable=0;fillColor=none;top=0;left=0;bottom=0;right=0;editable=1;overflow=hidden;whiteSpace=wrap;html=1;" vertex="1" parent="xMk1kvVIFYvAqJbKu6IV-12">
          <mxGeometry width="30" height="30" as="geometry">
            <mxRectangle width="30" height="30" as="alternateBounds" />
          </mxGeometry>
        </mxCell>
        <mxCell id="xMk1kvVIFYvAqJbKu6IV-14" value="profile_user_role: string" style="shape=partialRectangle;connectable=0;fillColor=none;top=0;left=0;bottom=0;right=0;align=left;spacingLeft=6;overflow=hidden;whiteSpace=wrap;html=1;" vertex="1" parent="xMk1kvVIFYvAqJbKu6IV-12">
          <mxGeometry x="30" width="150" height="30" as="geometry">
            <mxRectangle width="150" height="30" as="alternateBounds" />
          </mxGeometry>
        </mxCell>
        <mxCell id="xMk1kvVIFYvAqJbKu6IV-15" value="" style="shape=tableRow;horizontal=0;startSize=0;swimlaneHead=0;swimlaneBody=0;fillColor=none;collapsible=0;dropTarget=0;points=[[0,0.5],[1,0.5]];portConstraint=eastwest;top=0;left=0;right=0;bottom=0;" vertex="1" parent="xMk1kvVIFYvAqJbKu6IV-8">
          <mxGeometry y="90" width="180" height="30" as="geometry" />
        </mxCell>
        <mxCell id="xMk1kvVIFYvAqJbKu6IV-16" value="" style="shape=partialRectangle;connectable=0;fillColor=none;top=0;left=0;bottom=0;right=0;editable=1;overflow=hidden;whiteSpace=wrap;html=1;" vertex="1" parent="xMk1kvVIFYvAqJbKu6IV-15">
          <mxGeometry width="30" height="30" as="geometry">
            <mxRectangle width="30" height="30" as="alternateBounds" />
          </mxGeometry>
        </mxCell>
        <mxCell id="xMk1kvVIFYvAqJbKu6IV-17" value="user_hash" style="shape=partialRectangle;connectable=0;fillColor=none;top=0;left=0;bottom=0;right=0;align=left;spacingLeft=6;overflow=hidden;whiteSpace=wrap;html=1;" vertex="1" parent="xMk1kvVIFYvAqJbKu6IV-15">
          <mxGeometry x="30" width="150" height="30" as="geometry">
            <mxRectangle width="150" height="30" as="alternateBounds" />
          </mxGeometry>
        </mxCell>
        <mxCell id="xMk1kvVIFYvAqJbKu6IV-18" value="" style="shape=tableRow;horizontal=0;startSize=0;swimlaneHead=0;swimlaneBody=0;fillColor=none;collapsible=0;dropTarget=0;points=[[0,0.5],[1,0.5]];portConstraint=eastwest;top=0;left=0;right=0;bottom=0;" vertex="1" parent="xMk1kvVIFYvAqJbKu6IV-8">
          <mxGeometry y="120" width="180" height="30" as="geometry" />
        </mxCell>
        <mxCell id="xMk1kvVIFYvAqJbKu6IV-19" value="" style="shape=partialRectangle;connectable=0;fillColor=none;top=0;left=0;bottom=0;right=0;editable=1;overflow=hidden;whiteSpace=wrap;html=1;" vertex="1" parent="xMk1kvVIFYvAqJbKu6IV-18">
          <mxGeometry width="30" height="30" as="geometry">
            <mxRectangle width="30" height="30" as="alternateBounds" />
          </mxGeometry>
        </mxCell>
        <mxCell id="xMk1kvVIFYvAqJbKu6IV-20" value="hashed_otp" style="shape=partialRectangle;connectable=0;fillColor=none;top=0;left=0;bottom=0;right=0;align=left;spacingLeft=6;overflow=hidden;whiteSpace=wrap;html=1;" vertex="1" parent="xMk1kvVIFYvAqJbKu6IV-18">
          <mxGeometry x="30" width="150" height="30" as="geometry">
            <mxRectangle width="150" height="30" as="alternateBounds" />
          </mxGeometry>
        </mxCell>
        <mxCell id="xMk1kvVIFYvAqJbKu6IV-34" value="" style="shape=tableRow;horizontal=0;startSize=0;swimlaneHead=0;swimlaneBody=0;fillColor=none;collapsible=0;dropTarget=0;points=[[0,0.5],[1,0.5]];portConstraint=eastwest;top=0;left=0;right=0;bottom=0;" vertex="1" parent="xMk1kvVIFYvAqJbKu6IV-8">
          <mxGeometry y="150" width="180" height="30" as="geometry" />
        </mxCell>
        <mxCell id="xMk1kvVIFYvAqJbKu6IV-35" value="" style="shape=partialRectangle;connectable=0;fillColor=none;top=0;left=0;bottom=0;right=0;editable=1;overflow=hidden;" vertex="1" parent="xMk1kvVIFYvAqJbKu6IV-34">
          <mxGeometry width="30" height="30" as="geometry">
            <mxRectangle width="30" height="30" as="alternateBounds" />
          </mxGeometry>
        </mxCell>
        <mxCell id="xMk1kvVIFYvAqJbKu6IV-36" value="user_salt" style="shape=partialRectangle;connectable=0;fillColor=none;top=0;left=0;bottom=0;right=0;align=left;spacingLeft=6;overflow=hidden;" vertex="1" parent="xMk1kvVIFYvAqJbKu6IV-34">
          <mxGeometry x="30" width="150" height="30" as="geometry">
            <mxRectangle width="150" height="30" as="alternateBounds" />
          </mxGeometry>
        </mxCell>
        <mxCell id="xMk1kvVIFYvAqJbKu6IV-37" value="" style="shape=tableRow;horizontal=0;startSize=0;swimlaneHead=0;swimlaneBody=0;fillColor=none;collapsible=0;dropTarget=0;points=[[0,0.5],[1,0.5]];portConstraint=eastwest;top=0;left=0;right=0;bottom=0;" vertex="1" parent="xMk1kvVIFYvAqJbKu6IV-8">
          <mxGeometry y="180" width="180" height="30" as="geometry" />
        </mxCell>
        <mxCell id="xMk1kvVIFYvAqJbKu6IV-38" value="" style="shape=partialRectangle;connectable=0;fillColor=none;top=0;left=0;bottom=0;right=0;editable=1;overflow=hidden;" vertex="1" parent="xMk1kvVIFYvAqJbKu6IV-37">
          <mxGeometry width="30" height="30" as="geometry">
            <mxRectangle width="30" height="30" as="alternateBounds" />
          </mxGeometry>
        </mxCell>
        <mxCell id="xMk1kvVIFYvAqJbKu6IV-39" value="user_status" style="shape=partialRectangle;connectable=0;fillColor=none;top=0;left=0;bottom=0;right=0;align=left;spacingLeft=6;overflow=hidden;" vertex="1" parent="xMk1kvVIFYvAqJbKu6IV-37">
          <mxGeometry x="30" width="150" height="30" as="geometry">
            <mxRectangle width="150" height="30" as="alternateBounds" />
          </mxGeometry>
        </mxCell>
        <mxCell id="xMk1kvVIFYvAqJbKu6IV-21" value="user_account" style="shape=table;startSize=30;container=1;collapsible=1;childLayout=tableLayout;fixedRows=1;rowLines=0;fontStyle=1;align=center;resizeLast=1;html=1;whiteSpace=wrap;strokeWidth=2;" vertex="1" parent="WIyWlLk6GJQsqaUBKTNV-1">
          <mxGeometry x="100" y="735" width="200" height="180" as="geometry" />
        </mxCell>
        <mxCell id="xMk1kvVIFYvAqJbKu6IV-22" value="" style="shape=tableRow;horizontal=0;startSize=0;swimlaneHead=0;swimlaneBody=0;fillColor=none;collapsible=0;dropTarget=0;points=[[0,0.5],[1,0.5]];portConstraint=eastwest;top=0;left=0;right=0;bottom=0;html=1;strokeWidth=2;" vertex="1" parent="xMk1kvVIFYvAqJbKu6IV-21">
          <mxGeometry y="30" width="200" height="30" as="geometry" />
        </mxCell>
        <mxCell id="xMk1kvVIFYvAqJbKu6IV-23" value="PK" style="shape=partialRectangle;connectable=0;fillColor=none;top=0;left=0;bottom=0;right=0;fontStyle=1;overflow=hidden;html=1;whiteSpace=wrap;strokeWidth=2;" vertex="1" parent="xMk1kvVIFYvAqJbKu6IV-22">
          <mxGeometry width="60" height="30" as="geometry">
            <mxRectangle width="60" height="30" as="alternateBounds" />
          </mxGeometry>
        </mxCell>
        <mxCell id="xMk1kvVIFYvAqJbKu6IV-24" value="user_id: int" style="shape=partialRectangle;connectable=0;fillColor=none;top=0;left=0;bottom=0;right=0;align=left;spacingLeft=6;fontStyle=5;overflow=hidden;html=1;whiteSpace=wrap;strokeWidth=2;" vertex="1" parent="xMk1kvVIFYvAqJbKu6IV-22">
          <mxGeometry x="60" width="140" height="30" as="geometry">
            <mxRectangle width="140" height="30" as="alternateBounds" />
          </mxGeometry>
        </mxCell>
        <mxCell id="xMk1kvVIFYvAqJbKu6IV-25" value="" style="shape=tableRow;horizontal=0;startSize=0;swimlaneHead=0;swimlaneBody=0;fillColor=none;collapsible=0;dropTarget=0;points=[[0,0.5],[1,0.5]];portConstraint=eastwest;top=0;left=0;right=0;bottom=1;html=1;strokeWidth=2;" vertex="1" parent="xMk1kvVIFYvAqJbKu6IV-21">
          <mxGeometry y="60" width="200" height="30" as="geometry" />
        </mxCell>
        <mxCell id="xMk1kvVIFYvAqJbKu6IV-26" value="PK" style="shape=partialRectangle;connectable=0;fillColor=none;top=0;left=0;bottom=0;right=0;fontStyle=1;overflow=hidden;html=1;whiteSpace=wrap;strokeWidth=2;" vertex="1" parent="xMk1kvVIFYvAqJbKu6IV-25">
          <mxGeometry width="60" height="30" as="geometry">
            <mxRectangle width="60" height="30" as="alternateBounds" />
          </mxGeometry>
        </mxCell>
        <mxCell id="xMk1kvVIFYvAqJbKu6IV-27" value="user_hash: string" style="shape=partialRectangle;connectable=0;fillColor=none;top=0;left=0;bottom=0;right=0;align=left;spacingLeft=6;fontStyle=5;overflow=hidden;html=1;whiteSpace=wrap;strokeWidth=2;" vertex="1" parent="xMk1kvVIFYvAqJbKu6IV-25">
          <mxGeometry x="60" width="140" height="30" as="geometry">
            <mxRectangle width="140" height="30" as="alternateBounds" />
          </mxGeometry>
        </mxCell>
        <mxCell id="xMk1kvVIFYvAqJbKu6IV-28" value="" style="shape=tableRow;horizontal=0;startSize=0;swimlaneHead=0;swimlaneBody=0;fillColor=none;collapsible=0;dropTarget=0;points=[[0,0.5],[1,0.5]];portConstraint=eastwest;top=0;left=0;right=0;bottom=0;html=1;strokeWidth=2;" vertex="1" parent="xMk1kvVIFYvAqJbKu6IV-21">
          <mxGeometry y="90" width="200" height="30" as="geometry" />
        </mxCell>
        <mxCell id="xMk1kvVIFYvAqJbKu6IV-29" value="" style="shape=partialRectangle;connectable=0;fillColor=none;top=0;left=0;bottom=0;right=0;editable=1;overflow=hidden;html=1;whiteSpace=wrap;strokeWidth=2;" vertex="1" parent="xMk1kvVIFYvAqJbKu6IV-28">
          <mxGeometry width="60" height="30" as="geometry">
            <mxRectangle width="60" height="30" as="alternateBounds" />
          </mxGeometry>
        </mxCell>
        <mxCell id="xMk1kvVIFYvAqJbKu6IV-30" value="hashed_otp: string" style="shape=partialRectangle;connectable=0;fillColor=none;top=0;left=0;bottom=0;right=0;align=left;spacingLeft=6;overflow=hidden;html=1;whiteSpace=wrap;strokeWidth=2;" vertex="1" parent="xMk1kvVIFYvAqJbKu6IV-28">
          <mxGeometry x="60" width="140" height="30" as="geometry">
            <mxRectangle width="140" height="30" as="alternateBounds" />
          </mxGeometry>
        </mxCell>
        <mxCell id="xMk1kvVIFYvAqJbKu6IV-31" value="" style="shape=tableRow;horizontal=0;startSize=0;swimlaneHead=0;swimlaneBody=0;fillColor=none;collapsible=0;dropTarget=0;points=[[0,0.5],[1,0.5]];portConstraint=eastwest;top=0;left=0;right=0;bottom=0;html=1;strokeWidth=2;" vertex="1" parent="xMk1kvVIFYvAqJbKu6IV-21">
          <mxGeometry y="120" width="200" height="30" as="geometry" />
        </mxCell>
        <mxCell id="xMk1kvVIFYvAqJbKu6IV-32" value="" style="shape=partialRectangle;connectable=0;fillColor=none;top=0;left=0;bottom=0;right=0;editable=1;overflow=hidden;html=1;whiteSpace=wrap;strokeWidth=2;" vertex="1" parent="xMk1kvVIFYvAqJbKu6IV-31">
          <mxGeometry width="60" height="30" as="geometry">
            <mxRectangle width="60" height="30" as="alternateBounds" />
          </mxGeometry>
        </mxCell>
        <mxCell id="xMk1kvVIFYvAqJbKu6IV-33" value="user_salt: string" style="shape=partialRectangle;connectable=0;fillColor=none;top=0;left=0;bottom=0;right=0;align=left;spacingLeft=6;overflow=hidden;html=1;whiteSpace=wrap;strokeWidth=2;" vertex="1" parent="xMk1kvVIFYvAqJbKu6IV-31">
          <mxGeometry x="60" width="140" height="30" as="geometry">
            <mxRectangle width="140" height="30" as="alternateBounds" />
          </mxGeometry>
        </mxCell>
        <mxCell id="gLNbwo36YoJFuykzSE3J-8" value="" style="shape=tableRow;horizontal=0;startSize=0;swimlaneHead=0;swimlaneBody=0;fillColor=none;collapsible=0;dropTarget=0;points=[[0,0.5],[1,0.5]];portConstraint=eastwest;top=0;left=0;right=0;bottom=0;" vertex="1" parent="xMk1kvVIFYvAqJbKu6IV-21">
          <mxGeometry y="150" width="200" height="30" as="geometry" />
        </mxCell>
        <mxCell id="gLNbwo36YoJFuykzSE3J-9" value="" style="shape=partialRectangle;connectable=0;fillColor=none;top=0;left=0;bottom=0;right=0;editable=1;overflow=hidden;" vertex="1" parent="gLNbwo36YoJFuykzSE3J-8">
          <mxGeometry width="60" height="30" as="geometry">
            <mxRectangle width="60" height="30" as="alternateBounds" />
          </mxGeometry>
        </mxCell>
        <mxCell id="gLNbwo36YoJFuykzSE3J-10" value="Row" style="shape=partialRectangle;connectable=0;fillColor=none;top=0;left=0;bottom=0;right=0;align=left;spacingLeft=6;overflow=hidden;" vertex="1" parent="gLNbwo36YoJFuykzSE3J-8">
          <mxGeometry x="60" width="140" height="30" as="geometry">
            <mxRectangle width="140" height="30" as="alternateBounds" />
          </mxGeometry>
        </mxCell>
      </root>
    </mxGraphModel>
  </diagram>
  <diagram id="kY0ZuhlYODUs59kUp2Q4" name="Page-2">
    <mxGraphModel grid="1" page="1" gridSize="10" guides="1" tooltips="1" connect="1" arrows="1" fold="1" pageScale="1" pageWidth="850" pageHeight="1100" math="0" shadow="0">
      <root>
        <mxCell id="0" />
        <mxCell id="1" parent="0" />
        <mxCell id="QdFFM8IL52x8c7hUcvub-1" value="" style="line;strokeWidth=1;fillColor=none;align=left;verticalAlign=middle;spacingTop=-1;spacingLeft=3;spacingRight=3;rotatable=0;labelPosition=right;points=[];portConstraint=eastwest;strokeColor=inherit;" vertex="1" parent="1">
          <mxGeometry x="200" y="190" width="320" height="8" as="geometry" />
        </mxCell>
        <mxCell id="QdFFM8IL52x8c7hUcvub-2" value="+ updateusername(newName: string): boolean" style="text;strokeColor=none;fillColor=none;align=left;verticalAlign=top;spacingLeft=4;spacingRight=4;overflow=hidden;rotatable=0;points=[[0,0.5],[1,0.5]];portConstraint=eastwest;whiteSpace=wrap;html=1;" vertex="1" parent="1">
          <mxGeometry x="200" y="198" width="320" height="26" as="geometry" />
        </mxCell>
        <mxCell id="QdFFM8IL52x8c7hUcvub-3" value="+ updateDOB(newDOB: date): boolean" style="text;strokeColor=none;fillColor=none;align=left;verticalAlign=top;spacingLeft=4;spacingRight=4;overflow=hidden;rotatable=0;points=[[0,0.5],[1,0.5]];portConstraint=eastwest;whiteSpace=wrap;html=1;" vertex="1" parent="1">
          <mxGeometry x="200" y="224" width="320" height="26" as="geometry" />
        </mxCell>
        <mxCell id="QdFFM8IL52x8c7hUcvub-4" value="+ updateBio(newBio: string): boolean" style="text;strokeColor=none;fillColor=none;align=left;verticalAlign=top;spacingLeft=4;spacingRight=4;overflow=hidden;rotatable=0;points=[[0,0.5],[1,0.5]];portConstraint=eastwest;whiteSpace=wrap;html=1;" vertex="1" parent="1">
          <mxGeometry x="200" y="250" width="320" height="26" as="geometry" />
        </mxCell>
        <mxCell id="QdFFM8IL52x8c7hUcvub-5" value="+ updatePhoto(newName: string): boolean" style="text;strokeColor=none;fillColor=none;align=left;verticalAlign=top;spacingLeft=4;spacingRight=4;overflow=hidden;rotatable=0;points=[[0,0.5],[1,0.5]];portConstraint=eastwest;whiteSpace=wrap;html=1;" vertex="1" parent="1">
          <mxGeometry x="200" y="276" width="320" height="26" as="geometry" />
        </mxCell>
        <mxCell id="QdFFM8IL52x8c7hUcvub-6" value="+ updateAdditionalInfo(key: string, value: string): boolean" style="text;strokeColor=none;fillColor=none;align=left;verticalAlign=top;spacingLeft=4;spacingRight=4;overflow=hidden;rotatable=0;points=[[0,0.5],[1,0.5]];portConstraint=eastwest;whiteSpace=wrap;html=1;" vertex="1" parent="1">
          <mxGeometry x="200" y="302" width="320" height="26" as="geometry" />
        </mxCell>
      </root>
    </mxGraphModel>
  </diagram>
</mxfile>
